<svg width="120" height="120" viewBox="0 0 120 120" fill="none" xmlns="http://www.w3.org/2000/svg">
<path d="M102.824 55.1796C105.542 51.9073 109.364 49.7288 113.345 48.9165C114.568 52.6965 113.935 57.1434 111.196 61.1009C109.304 63.8427 106.68 65.9404 103.763 67.274C102.466 67.8694 101.109 68.3124 99.7338 68.5942C98.5082 64.8188 99.15 60.365 101.882 56.4142C102.178 55.9873 102.492 55.5742 102.824 55.1796Z" fill="#C9BEF6"/>
<path d="M98.3331 85.9062C96.5008 85.8485 94.6916 85.5257 92.9885 84.9532C93.8262 81.0693 96.6093 77.5408 100.959 75.4893C105.314 73.4378 110.315 73.3039 114.632 74.7531C113.799 78.637 111.019 82.1655 106.669 84.2172C104.029 85.4608 101.151 85.9985 98.3331 85.9062Z" fill="white"/>
<path d="M110.192 36.9235C111.148 36.9235 111.923 36.1486 111.923 35.1927C111.923 34.2368 111.148 33.4619 110.192 33.4619C109.236 33.4619 108.462 34.2368 108.462 35.1927C108.462 36.1486 109.236 36.9235 110.192 36.9235Z" fill="#591ED6"/>
<path d="M109.039 95.7696C109.994 95.7696 110.769 94.9948 110.769 94.0389C110.769 93.083 109.994 92.3081 109.039 92.3081C108.083 92.3081 107.308 93.083 107.308 94.0389C107.308 94.9948 108.083 95.7696 109.039 95.7696Z" fill="#591ED6"/>
<path d="M104.423 23.6543C108.247 23.6543 111.346 20.5547 111.346 16.7312C111.346 12.9077 108.247 9.80811 104.423 9.80811C100.6 9.80811 97.5 12.9077 97.5 16.7312C97.5 20.5547 100.6 23.6543 104.423 23.6543Z" fill="#C9BEF6"/>
<path d="M92.5246 35.2157C93.2513 32.428 94.6175 29.8457 96.4408 27.7227C99.7223 29.9634 101.947 33.8727 102.205 38.675C102.372 41.7811 101.695 44.8342 100.394 47.5365C99.6805 49.018 98.7805 50.3934 97.7305 51.6165C94.449 49.378 92.2267 45.4734 91.9682 40.6711C91.8695 38.8134 92.0702 36.9742 92.5246 35.2157Z" fill="white"/>
<path d="M93.5954 92.7858C96.2677 93.5681 98.73 94.9435 100.754 96.7412C98.4672 99.9858 94.5257 102.143 89.7187 102.333C87.6533 102.411 85.6157 102.118 83.6933 101.516C81.141 100.72 78.7895 99.3812 76.8441 97.655C79.138 94.4106 83.0749 92.2527 87.8864 92.0637C89.8385 91.9896 91.7654 92.2481 93.5954 92.7858Z" fill="#C9BEF6"/>
<path d="M94.0385 109.616C94.9944 109.616 95.7693 108.841 95.7693 107.885C95.7693 106.929 94.9944 106.154 94.0385 106.154C93.0826 106.154 92.3077 106.929 92.3077 107.885C92.3077 108.841 93.0826 109.616 94.0385 109.616Z" fill="#591ED6"/>
<path d="M88.2692 13.8463C89.2251 13.8463 90 13.0714 90 12.1155C90 11.1597 89.2251 10.3848 88.2692 10.3848C87.3133 10.3848 86.5385 11.1597 86.5385 12.1155C86.5385 13.0714 87.3133 13.8463 88.2692 13.8463Z" fill="#591ED6"/>
<path d="M79.7746 16.7078C83.3282 19.9478 85.3592 24.517 85.6662 29.0655C81.7613 29.7739 77.4321 28.5509 73.8759 25.3062C70.3223 22.0685 68.2915 17.497 67.9867 12.9485C71.8892 12.2401 76.2185 13.4655 79.7746 16.7078Z" fill="#C9BEF6"/>
<path d="M60 32.3081C76.5669 32.3081 90 45.7389 90 62.3081C90 78.8773 76.5669 92.3081 60 92.3081C43.4308 92.3081 30 78.8773 30 62.3081C30 45.7389 43.4308 32.3081 60 32.3081Z" fill="white"/>
<path d="M52.02 12.9466C51.7085 17.4973 49.68 22.0666 46.1239 25.3043C42.5677 28.5489 38.2454 29.7743 34.3362 29.0658C34.6408 24.515 36.6764 19.9458 40.2323 16.7081C43.7885 13.4635 48.1108 12.2381 52.02 12.9466Z" fill="#C9BEF6"/>
<path d="M26.4024 92.7878C28.2347 92.2478 30.1639 91.9893 32.1188 92.0632C36.9254 92.2524 40.867 94.4101 43.1539 97.6547C41.2085 99.3809 38.8595 100.719 36.307 101.515C34.3847 102.118 32.347 102.411 30.2818 102.332C25.4749 102.143 21.5334 99.9852 19.2441 96.7408C21.2678 94.9455 23.7301 93.5701 26.4024 92.7878Z" fill="#C9BEF6"/>
<path d="M31.7308 11.5387C32.6866 11.5387 33.4615 10.7638 33.4615 9.80792C33.4615 8.85204 32.6866 8.07715 31.7308 8.07715C30.7749 8.07715 30 8.85204 30 9.80792C30 10.7638 30.7749 11.5387 31.7308 11.5387Z" fill="#591ED6"/>
<path d="M29.4232 109.616C30.379 109.616 31.1539 108.841 31.1539 107.885C31.1539 106.929 30.379 106.154 29.4232 106.154C28.4673 106.154 27.6924 106.929 27.6924 107.885C27.6924 108.841 28.4673 109.616 29.4232 109.616Z" fill="#591ED6"/>
<path d="M19.6039 47.5365C18.3046 44.8342 17.6285 41.7811 17.7993 38.675C18.0577 33.8727 20.2826 29.9634 23.5569 27.7227C25.3823 29.8434 26.7485 32.428 27.4731 35.2157C27.93 36.9742 28.131 38.8134 28.0318 40.6711C27.7733 45.4734 25.5485 49.378 22.2693 51.6165C21.2169 50.3957 20.3169 49.018 19.6039 47.5365Z" fill="white"/>
<path d="M21.6646 85.9065C18.8469 85.9988 15.9715 85.4611 13.3361 84.2175C8.98614 82.1657 6.2056 78.6372 5.36768 74.7534C9.13868 73.489 13.4238 73.429 17.3446 74.7972C17.9192 74.9957 18.4846 75.2265 19.0408 75.4896C23.391 77.5411 26.1715 81.0696 27.0092 84.9534C25.3061 85.5257 23.4969 85.8488 21.6646 85.9065Z" fill="white"/>
<path d="M17.1739 55.1773C17.5062 55.5742 17.8203 55.9873 18.1155 56.4142C20.8547 60.365 21.4893 64.8188 20.2642 68.5942C18.8888 68.3124 17.5318 67.8694 16.2349 67.274C13.3203 65.938 10.6988 63.8401 8.80416 61.1009C6.06931 57.1434 5.43008 52.6965 6.65547 48.9165C10.6408 49.7288 14.4601 51.9073 17.1739 55.1773Z" fill="#C9BEF6"/>
<path d="M15 101.539C17.5477 101.539 19.6154 103.604 19.6154 106.154C19.6154 108.704 17.5477 110.769 15 110.769C12.45 110.769 10.3846 108.704 10.3846 106.154C10.3846 103.604 12.45 101.539 15 101.539Z" fill="#C9BEF6"/>
<path d="M12.1154 30.0006C13.0713 30.0006 13.8462 29.2257 13.8462 28.2698C13.8462 27.314 13.0713 26.5391 12.1154 26.5391C11.1595 26.5391 10.3846 27.314 10.3846 28.2698C10.3846 29.2257 11.1595 30.0006 12.1154 30.0006Z" fill="#591ED6"/>
<path d="M27.4715 36.37C27.1764 36.37 26.881 36.2576 26.6562 36.0326C26.2145 35.5909 26.2046 34.8815 26.6287 34.4292C28.7368 32.0989 31.1027 29.9797 33.6605 28.1306C34.1767 27.757 34.8981 27.8733 35.2713 28.3897C35.6447 28.9062 35.5288 29.6273 35.0124 30.0007C32.5805 31.759 30.3321 33.7738 28.329 35.9894C28.3161 36.0037 28.3027 36.0178 28.2891 36.0316C28.0634 36.2571 27.7674 36.37 27.4715 36.37Z" fill="#591ED6"/>
<path d="M92.5295 36.3743C92.2316 36.3743 91.9343 36.2597 91.7091 36.0323C91.695 36.0183 91.6814 36.004 91.6683 35.9894C89.6645 33.7703 87.4179 31.7557 84.9903 30.0012C84.4738 29.628 84.3577 28.9067 84.7309 28.3902C85.104 27.874 85.8252 27.7574 86.3419 28.1308C88.8949 29.9758 91.2582 32.094 93.3665 34.4267C93.804 34.8882 93.7856 35.6172 93.3247 36.0561C93.1016 36.2689 92.8154 36.3743 92.5295 36.3743Z" fill="#591ED6"/>
<path d="M102.824 56.3345C102.258 56.3345 101.787 55.9276 101.689 55.3897C101.133 52.8609 100.342 50.3772 99.3394 48.0055C99.273 47.8579 99.2377 47.6963 99.2377 47.5318C99.2377 46.8946 99.7541 46.3779 100.392 46.3779C100.871 46.3779 101.282 46.6703 101.456 47.0864C102.523 49.6057 103.362 52.2457 103.951 54.9323C103.969 55.0135 103.978 55.0962 103.978 55.1792C103.978 55.8166 103.461 56.3345 102.824 56.3345Z" fill="#591ED6"/>
<path d="M102.657 75.9517C102.568 75.9517 102.478 75.9415 102.388 75.9201C101.769 75.7724 101.385 75.1504 101.533 74.5304C102.1 72.1479 102.463 69.6833 102.612 67.2051C102.65 66.5688 103.195 66.0863 103.833 66.1225C104.469 66.1608 104.953 66.7073 104.915 67.3435C104.758 69.9547 104.376 72.5524 103.778 75.0646C103.652 75.5949 103.178 75.9517 102.657 75.9517Z" fill="#591ED6"/>
<path d="M93.594 93.9399C93.2894 93.9399 92.985 93.8202 92.7586 93.5825C92.3416 93.1447 92.3354 92.4658 92.73 92.022C94.4672 89.952 96.0134 87.7059 97.3244 85.3456C97.3835 85.2395 97.4578 85.1448 97.5439 85.0641C97.7504 84.8693 98.0292 84.75 98.3354 84.75C98.9728 84.75 99.4892 85.2665 99.4892 85.9038C99.4892 86.1235 99.4276 86.3292 99.3208 86.5043C97.938 88.9876 96.309 91.3502 94.479 93.528C94.4515 93.5608 94.4222 93.5917 94.3913 93.6212C94.1677 93.8342 93.8804 93.9399 93.594 93.9399Z" fill="#591ED6"/>
<path d="M60 109.616C51.3413 109.616 42.9323 107.15 35.6827 102.486C35.1468 102.141 34.9918 101.427 35.3365 100.892C35.6815 100.356 36.3955 100.201 36.9311 100.545C43.8078 104.97 51.7848 107.308 60 107.308C68.2154 107.308 76.1921 104.97 83.0688 100.545C83.6044 100.2 84.3187 100.356 84.6634 100.892C85.0082 101.427 84.8534 102.141 84.3173 102.486C77.0677 107.15 68.6587 109.616 60 109.616Z" fill="#591ED6"/>
<path d="M26.4031 93.9439C26.1084 93.9439 25.8137 93.8315 25.5889 93.6063C25.5649 93.5825 25.54 93.5553 25.5183 93.5296C23.6892 91.3484 22.0605 88.9849 20.6768 86.5039C20.5702 86.3289 20.5085 86.1238 20.5085 85.9043C20.5085 85.2669 21.0252 84.7505 21.6624 84.7505C21.9781 84.7505 22.264 84.8772 22.4724 85.0826C22.5504 85.1592 22.6182 85.2473 22.6729 85.3456C23.9883 87.709 25.5379 89.9606 27.2793 92.0382C27.6682 92.4916 27.649 93.1761 27.2195 93.6053C26.9941 93.8308 26.6985 93.9436 26.4031 93.9439Z" fill="#591ED6"/>
<path d="M17.3437 75.9515C16.8215 75.9515 16.3482 75.5948 16.2222 75.0644C15.6224 72.544 15.2391 69.9462 15.0829 67.3434C15.0815 67.3203 15.0808 67.2972 15.0808 67.2741C15.0808 66.6368 15.5973 66.1191 16.2347 66.1191C16.855 66.1191 17.361 66.6077 17.3873 67.2213C17.5364 69.6859 17.8994 72.1445 18.4671 74.5302C18.6148 75.1503 18.2315 75.7722 17.6117 75.9199C17.5221 75.9414 17.4321 75.9515 17.3437 75.9515Z" fill="#591ED6"/>
<path d="M17.1739 56.3322C16.5367 56.3322 16.02 55.8166 16.02 55.1795C16.02 55.0962 16.029 55.0108 16.047 54.9295C16.6369 52.2471 17.4755 49.6094 18.5403 47.0894C18.7138 46.6717 19.1257 46.3779 19.6062 46.3779C20.2436 46.3779 20.76 46.8946 20.76 47.5318C20.76 47.6947 20.7254 47.8549 20.6599 48.0016C19.6558 50.3806 18.864 52.8704 18.3058 55.4026C18.2008 55.9322 17.7342 56.3322 17.1739 56.3322Z" fill="#591ED6"/>
<path d="M89.0598 103.499C87.1387 103.499 85.217 103.203 83.3483 102.617C80.6741 101.783 78.1599 100.365 76.0781 98.5184C75.6383 98.1282 75.5624 97.4693 75.9016 96.9891C78.4938 93.3226 82.8457 91.1072 87.8407 90.9108C88.0761 90.9018 88.3091 90.8975 88.542 90.8975C90.3461 90.8975 92.1556 91.1605 93.9207 91.6791C96.7223 92.499 99.3503 93.9515 101.52 95.8786C101.959 96.2684 102.035 96.9261 101.697 97.4061C99.1124 101.073 94.7628 103.289 89.7639 103.486C89.5278 103.495 89.2934 103.499 89.0598 103.499ZM78.441 97.4841C80.1023 98.7799 82.0174 99.7849 84.0367 100.415C85.8828 100.993 87.7772 101.251 89.6746 101.18C93.5457 101.028 96.942 99.4869 99.1583 96.9132C97.4169 95.5528 95.4016 94.5171 93.2714 93.8935C91.5168 93.378 89.7242 93.1498 87.93 93.2167C84.0616 93.369 80.6633 94.9096 78.441 97.4841Z" fill="#591ED6"/>
<path d="M98.9511 87.0705C98.7324 87.0705 98.5136 87.0668 98.2953 87.0597C96.3471 86.9983 94.4373 86.6577 92.6209 86.047C92.0641 85.8599 91.7368 85.2844 91.8605 84.7102C92.8074 80.32 95.9442 76.579 100.467 74.4458C102.983 73.2606 105.824 72.6343 108.685 72.6343C110.848 72.6343 112.973 72.979 114.999 73.6594C115.556 73.846 115.883 74.4211 115.76 74.9953C114.819 79.3854 111.684 83.1274 107.161 85.2608C104.648 86.4449 101.809 87.0705 98.9511 87.0705ZM94.3902 84.1711C95.6781 84.515 97.0122 84.7104 98.3694 84.7531C101.096 84.841 103.8 84.293 106.177 83.1733C109.68 81.5212 112.201 78.7746 113.232 75.5357C111.758 75.1414 110.233 74.942 108.685 74.942C106.162 74.942 103.66 75.4924 101.451 76.5334C97.9482 78.1854 95.4247 80.932 94.3902 84.1711Z" fill="#591ED6"/>
<path d="M99.7332 69.7483C99.2425 69.7483 98.7935 69.4338 98.6365 68.9506C97.2508 64.6809 98.0878 59.8723 100.933 55.7577C101.254 55.2939 101.593 54.8494 101.941 54.4361C104.759 51.0445 108.729 48.6807 113.114 47.7858C113.688 47.6679 114.262 48.002 114.443 48.5612C115.827 52.8385 114.989 57.6484 112.145 61.7575C110.197 64.5796 107.465 66.8501 104.243 68.3231C102.873 68.9522 101.433 69.4239 99.9655 69.7243C99.8878 69.7407 99.81 69.7483 99.7332 69.7483ZM112.524 50.2957C109.071 51.2257 105.972 53.1955 103.711 55.917C103.405 56.2807 103.11 56.6667 102.831 57.0708C100.628 60.2568 99.822 63.8967 100.553 67.2143C101.485 66.9616 102.399 66.6307 103.282 66.2257C106.126 64.9248 108.534 62.9266 110.247 60.4458C112.45 57.2619 113.256 53.6201 112.524 50.2957Z" fill="#591ED6"/>
<path d="M97.7303 52.7704C97.5053 52.7704 97.2787 52.7049 97.0807 52.5697C93.3683 50.0374 91.0851 45.7232 90.8163 40.7333C90.7131 38.7978 90.9118 36.8443 91.4077 34.9271C92.1709 32.0007 93.6083 29.2504 95.5657 26.9711C95.9488 26.5248 96.6063 26.4383 97.0918 26.7699C100.805 29.3058 103.089 33.6224 103.358 38.6132C103.529 41.8103 102.863 45.069 101.433 48.0373C100.679 49.6043 99.7281 51.0616 98.6063 52.3682C98.3795 52.6322 98.0566 52.7704 97.7303 52.7704ZM96.6381 29.3167C95.2528 31.1515 94.224 33.2716 93.6413 35.507C93.2054 37.1933 93.0303 38.9107 93.1207 40.6098C93.3286 44.4736 94.9216 47.8442 97.5337 50.0233C98.2348 49.0954 98.8452 48.0946 99.3545 47.0365C100.616 44.4166 101.204 41.5467 101.053 38.7369C100.845 34.8717 99.2516 31.4988 96.6381 29.3167Z" fill="#591ED6"/>
<path d="M83.4921 30.4141C79.797 30.4141 76.1059 28.903 73.0985 26.1592C69.4555 22.84 67.1723 18.0529 66.8356 13.0261C66.7964 12.4404 67.2032 11.9186 67.7809 11.8138C68.5583 11.6726 69.3582 11.6011 70.1585 11.6011C73.8517 11.6011 77.5428 13.1119 80.5521 15.8558C84.1948 19.1768 86.4785 23.9634 86.8175 28.9886C86.8572 29.5745 86.4501 30.0968 85.8722 30.2015C85.0936 30.3425 84.2931 30.4141 83.4921 30.4141ZM69.2442 13.9464C69.7692 17.986 71.7058 21.7685 74.6534 24.4538C77.4888 27.0407 81.0076 28.3478 84.4087 28.0688C83.8816 24.0303 81.9443 20.2478 78.9974 17.5609C76.1608 14.9747 72.6415 13.6655 69.2442 13.9464Z" fill="#591ED6"/>
<path d="M30.9404 103.499C30.7066 103.499 30.4724 103.495 30.2377 103.486C25.2383 103.289 20.8881 101.073 18.3009 97.4065C17.9621 96.9263 18.0383 96.2681 18.4781 95.8781C20.649 93.9521 23.2772 92.5006 26.0783 91.6809C28.0687 91.0943 30.1142 90.8314 32.1621 90.9108C37.1628 91.1074 41.5124 93.3233 44.097 96.9904C44.4355 97.4707 44.3591 98.1286 43.9195 98.5184C41.8371 100.366 39.3235 101.784 36.6505 102.618C34.7831 103.203 32.8615 103.499 30.9404 103.499ZM20.8405 96.9133C23.0587 99.4871 26.4556 101.028 30.327 101.18C32.2101 101.251 34.1174 100.993 35.9621 100.415C37.9811 99.7853 39.8958 98.7798 41.5578 97.4831C39.3413 94.9096 35.9453 93.3692 32.0732 93.2169C30.2908 93.1497 28.4813 93.3787 26.7286 93.8954C24.5981 94.5189 22.5826 95.5541 20.8405 96.9133Z" fill="#591ED6"/>
<path d="M21.0473 87.0707C21.0471 87.0707 21.0469 87.0707 21.0466 87.0707C18.1886 87.0707 15.3519 86.4449 12.8437 85.261C8.32295 83.129 5.1868 79.3877 4.23972 74.9969C4.1158 74.4223 4.44372 73.8465 5.0008 73.6596C7.02949 72.9793 9.1551 72.6343 11.3186 72.6343C13.528 72.6343 15.6836 72.9954 17.7249 73.708C18.3335 73.9183 18.9432 74.167 19.5342 74.4467C24.0543 76.5781 27.1904 80.3194 28.1373 84.7104C28.2612 85.2846 27.9337 85.8601 27.3769 86.0473C25.5605 86.6577 23.6509 86.9985 21.7009 87.0599C21.4842 87.067 21.2661 87.0707 21.0473 87.0707ZM6.76941 75.536C7.80395 78.7757 10.3267 81.5224 13.8284 83.174C16.0311 84.2136 18.5269 84.763 21.0469 84.763H21.0471C21.2409 84.763 21.4339 84.7598 21.6268 84.7536C22.9853 84.7107 24.3196 84.5154 25.6078 84.1716C24.5735 80.9318 22.0505 78.1852 18.5486 76.5336C18.0321 76.2892 17.5006 76.0723 16.9678 75.8881C15.168 75.26 13.2686 74.942 11.3186 74.942C9.7701 74.942 8.24472 75.1414 6.76941 75.536Z" fill="#591ED6"/>
<path d="M20.2645 69.7485C20.1877 69.7485 20.1102 69.7409 20.0322 69.7248C18.5642 69.4241 17.1245 68.9524 15.7532 68.3228C12.5372 66.8487 9.80608 64.5784 7.8547 61.7575C5.01024 57.6412 4.17324 52.8313 5.55762 48.5609C5.73855 48.0025 6.31085 47.6685 6.8857 47.7862C11.2735 48.6807 15.2425 51.0438 18.0616 54.4407C18.4092 54.8556 18.7475 55.3003 19.0643 55.7582C21.912 59.8652 22.7495 64.6742 21.3614 68.951C21.2047 69.434 20.7554 69.7485 20.2645 69.7485ZM7.47555 50.2956C6.74447 53.615 7.55008 57.257 9.75324 60.4453C11.4683 62.9249 13.8759 64.9238 16.7155 66.2256C17.5985 66.6308 18.5125 66.9618 19.4449 67.2145C20.1782 63.8921 19.3726 60.2526 17.1674 57.0719C16.89 56.6708 16.5949 56.2829 16.2893 55.9183C14.0282 53.1941 10.9299 51.2249 7.47555 50.2956Z" fill="#591ED6"/>
<path d="M22.2699 52.7704C21.9443 52.7704 21.6219 52.6328 21.3953 52.37C20.2751 51.0703 19.3225 49.6125 18.5642 48.0371C17.1346 45.0634 16.4716 41.8045 16.647 38.6118C16.9154 33.6248 19.1965 29.3085 22.9052 26.7705C23.3905 26.4385 24.048 26.5243 24.4313 26.9702C26.3905 29.2467 27.8287 31.9977 28.5898 34.9257C29.0873 36.8408 29.2871 38.7945 29.1835 40.733C28.9151 45.7215 26.6319 50.0358 22.9195 52.5696C22.7218 52.7048 22.4949 52.7704 22.2699 52.7704ZM23.3614 29.3168C20.751 31.5004 19.1594 34.8735 18.9514 38.7368C18.7971 41.5435 19.3823 44.4131 20.6439 47.0365C21.1551 48.0987 21.7654 49.0998 22.4651 50.0238C25.0781 47.8435 26.6716 44.4722 26.8795 40.6091C26.9704 38.9083 26.7944 37.1912 26.3564 35.5058C25.7748 33.2688 24.747 31.1489 23.3614 29.3168Z" fill="#591ED6"/>
<path d="M36.5105 30.4139C36.51 30.4139 36.5102 30.4139 36.5098 30.4139C35.7092 30.4137 34.9087 30.3422 34.1303 30.2014C33.5527 30.0966 33.1456 29.5749 33.1849 28.9889C33.5211 23.9644 35.8066 19.1771 39.4553 15.8549C42.4636 13.1104 46.1541 11.5986 49.8462 11.5986C50.6467 11.5986 51.4472 11.6702 52.2256 11.8112C52.8042 11.9162 53.2112 12.4389 53.1711 13.0252C52.8268 18.0562 50.5412 22.8429 46.9006 26.1574C43.8928 28.9017 40.2023 30.4139 36.5105 30.4139ZM35.5932 28.0684C35.8973 28.0936 36.2036 28.1062 36.5098 28.1062H36.5105C39.6256 28.1062 42.7636 26.8086 45.3462 24.452C48.2922 21.77 50.2304 17.9875 50.7614 13.9439C47.3652 13.6649 43.8464 14.9729 41.01 17.5606C38.0576 20.2486 36.1189 24.0311 35.5932 28.0684Z" fill="#591ED6"/>
<path d="M15.0001 111.924C11.8189 111.924 9.23083 109.336 9.23083 106.154C9.23083 102.973 11.8189 100.385 15.0001 100.385C18.1812 100.385 20.7693 102.973 20.7693 106.154C20.7693 109.336 18.1812 111.924 15.0001 111.924ZM15.0001 102.693C13.0914 102.693 11.5385 104.246 11.5385 106.154C11.5385 108.063 13.0914 109.616 15.0001 109.616C16.9088 109.616 18.4616 108.063 18.4616 106.154C18.4616 104.246 16.9088 102.693 15.0001 102.693Z" fill="#591ED6"/>
<path d="M104.423 24.8081C99.9695 24.8081 96.3462 21.1848 96.3462 16.7312C96.3462 12.2776 99.9695 8.6543 104.423 8.6543C108.877 8.6543 112.5 12.2776 112.5 16.7312C112.5 21.1848 108.877 24.8081 104.423 24.8081ZM104.423 10.962C101.242 10.962 98.6539 13.5501 98.6539 16.7312C98.6539 19.9124 101.242 22.5005 104.423 22.5005C107.604 22.5005 110.192 19.9124 110.192 16.7312C110.192 13.5501 107.604 10.962 104.423 10.962Z" fill="#591ED6"/>
<path d="M60 93.462C42.8218 93.462 28.8462 79.4866 28.8462 62.3081C28.8462 45.1297 42.8218 31.1543 60 31.1543C77.1783 31.1543 91.1539 45.1299 91.1539 62.3081C91.1539 79.4864 77.1783 93.462 60 93.462ZM60 33.462C44.0943 33.462 31.1539 46.4024 31.1539 62.3081C31.1539 78.2139 44.0943 91.1543 60 91.1543C75.906 91.1543 88.8462 78.2139 88.8462 62.3081C88.8462 46.4024 75.906 33.462 60 33.462Z" fill="#591ED6"/>
<path d="M49.1205 61.4881L58.4033 69.9332L70.5263 56.7978" stroke="#591ED6" stroke-width="4" stroke-linecap="round" stroke-linejoin="round"/>
</svg>
