<svg width="120" height="120" viewBox="0 0 120 120" fill="none" xmlns="http://www.w3.org/2000/svg">
<path d="M102.3 91.6454C105.274 94.6196 105.274 99.4433 102.3 102.418C99.3258 105.392 94.5021 105.392 91.5279 102.418L77.8545 88.7439C74.8805 85.7699 74.8805 80.9462 77.8545 77.972C79.3404 76.486 81.2904 75.7407 83.2404 75.7407C85.1904 75.7407 87.1404 76.486 88.6263 77.972L102.3 91.6454Z" fill="#C9BEF6"/>
<path d="M99.8438 34.3359C103.727 34.3359 106.875 31.1879 106.875 27.3047C106.875 23.4214 103.727 20.2734 99.8438 20.2734C95.9605 20.2734 92.8125 23.4214 92.8125 27.3047C92.8125 31.1879 95.9605 34.3359 99.8438 34.3359Z" fill="white"/>
<path d="M24.8438 106.992C30.0214 106.992 34.2188 102.795 34.2188 97.6172C34.2188 92.4395 30.0214 88.2422 24.8438 88.2422C19.6661 88.2422 15.4688 92.4395 15.4688 97.6172C15.4688 102.795 19.6661 106.992 24.8438 106.992Z" fill="white"/>
<path d="M70.3966 24.11C83.2125 36.9256 83.2125 57.7006 70.3966 70.5139C57.5836 83.3295 36.8084 83.3295 23.993 70.5139C11.1797 57.7006 11.1797 36.9254 23.993 24.11C36.8086 11.2967 57.5836 11.2967 70.3966 24.11ZM70.8654 47.3131C70.8654 34.2654 60.2412 23.6436 47.1961 23.6436C34.1484 23.6436 23.5266 34.2654 23.5266 47.3131C23.5266 60.3584 34.1484 70.9826 47.1961 70.9826C60.2412 70.9826 70.8654 60.3584 70.8654 47.3131Z" fill="#C9BEF6"/>
<path d="M108.633 49.5703C109.604 49.5703 110.391 48.7833 110.391 47.8125C110.391 46.8417 109.604 46.0547 108.633 46.0547C107.662 46.0547 106.875 46.8417 106.875 47.8125C106.875 48.7833 107.662 49.5703 108.633 49.5703Z" fill="#591ED6"/>
<path d="M94.5703 65.9766C95.5411 65.9766 96.3281 65.1896 96.3281 64.2188C96.3281 63.2479 95.5411 62.4609 94.5703 62.4609C93.5995 62.4609 92.8125 63.2479 92.8125 64.2188C92.8125 65.1896 93.5995 65.9766 94.5703 65.9766Z" fill="#591ED6"/>
<path d="M81.6797 20.2734C82.6505 20.2734 83.4375 19.4864 83.4375 18.5156C83.4375 17.5448 82.6505 16.7578 81.6797 16.7578C80.7089 16.7578 79.9219 17.5448 79.9219 18.5156C79.9219 19.4864 80.7089 20.2734 81.6797 20.2734Z" fill="#591ED6"/>
<path d="M76.9922 108.164C77.963 108.164 78.75 107.377 78.75 106.406C78.75 105.435 77.963 104.648 76.9922 104.648C76.0214 104.648 75.2344 105.435 75.2344 106.406C75.2344 107.377 76.0214 108.164 76.9922 108.164Z" fill="#591ED6"/>
<path d="M52.3828 92.9297C53.3536 92.9297 54.1406 92.1427 54.1406 91.1719C54.1406 90.2011 53.3536 89.4141 52.3828 89.4141C51.412 89.4141 50.625 90.2011 50.625 91.1719C50.625 92.1427 51.412 92.9297 52.3828 92.9297Z" fill="#591ED6"/>
<path d="M18.6328 15.3516C19.6036 15.3516 20.3906 14.5646 20.3906 13.5938C20.3906 12.6229 19.6036 11.8359 18.6328 11.8359C17.662 11.8359 16.875 12.6229 16.875 13.5938C16.875 14.5646 17.662 15.3516 18.6328 15.3516Z" fill="#591ED6"/>
<path d="M11.3672 76.5234C12.338 76.5234 13.125 75.7364 13.125 74.7656C13.125 73.7948 12.338 73.0078 11.3672 73.0078C10.3964 73.0078 9.60938 73.7948 9.60938 74.7656C9.60938 75.7364 10.3964 76.5234 11.3672 76.5234Z" fill="#591ED6"/>
<path d="M47.1961 72.1545C33.4985 72.1545 22.3547 61.0107 22.3547 47.3131C22.3547 33.6155 33.4985 22.4717 47.1961 22.4717C60.8937 22.4717 72.0375 33.6155 72.0375 47.3131C72.0375 61.0107 60.8937 72.1545 47.1961 72.1545ZM47.1961 24.8154C34.7909 24.8154 24.6984 34.9079 24.6984 47.3131C24.6984 59.7183 34.7909 69.8107 47.1961 69.8107C59.6013 69.8107 69.6937 59.7181 69.6937 47.3131C69.6937 34.9079 59.6013 24.8154 47.1961 24.8154Z" fill="#591ED6"/>
<path d="M47.1959 81.2976C38.1185 81.2976 29.584 77.762 23.1645 71.3425C9.91523 58.093 9.91523 36.5329 23.1645 23.2813C36.416 10.0319 57.9766 10.0319 71.2256 23.2813C77.6454 29.7009 81.1807 38.2354 81.1807 47.3127C81.1807 56.3903 77.6454 64.9241 71.2256 71.3425C64.8073 77.762 56.2732 81.2976 47.1959 81.2976ZM47.1959 15.6871C39.0923 15.6871 30.9912 18.7703 24.8217 24.9388C12.4863 37.2766 12.4863 57.3498 24.8217 69.6852C30.7985 75.6623 38.7445 78.9538 47.1959 78.9538C55.6472 78.9538 63.5925 75.6623 69.5684 69.6852C75.5454 63.7094 78.837 55.7643 78.837 47.3127C78.837 38.8612 75.5454 30.9154 69.5686 24.9386C63.4012 18.7717 55.2973 15.6871 47.1959 15.6871Z" fill="#591ED6"/>
<path d="M96.9141 105.816C94.6634 105.816 92.4129 104.959 90.6994 103.246L77.0259 89.5724C73.5994 86.1456 73.5994 80.5698 77.0259 77.1432C78.6858 75.4829 80.8929 74.5688 83.2406 74.5688C85.5881 74.5688 87.7952 75.4829 89.4553 77.1432L103.129 90.8167C106.555 94.2435 106.555 99.819 103.129 103.246C101.415 104.959 99.1648 105.816 96.9141 105.816ZM83.2406 76.9126C81.5191 76.9126 79.9005 77.5831 78.6834 78.8005C76.1705 81.3137 76.1705 85.4024 78.6832 87.9153L92.3566 101.589C94.8698 104.102 98.9585 104.102 101.472 101.589C103.984 99.0758 103.984 94.9871 101.472 92.4742L87.7981 78.8007C86.5805 77.5831 84.9621 76.9126 83.2406 76.9126Z" fill="#591ED6"/>
<path d="M77.8547 79.1438C77.5549 79.1438 77.2547 79.0292 77.0262 78.8005L69.5686 71.3427C69.1109 70.8852 69.1109 70.1431 69.5686 69.6854C70.0259 69.2279 70.7684 69.2279 71.2256 69.6854L78.6832 77.1432C79.1409 77.601 79.1409 78.343 78.6832 78.8005C78.4545 79.029 78.1544 79.1438 77.8547 79.1438Z" fill="#591ED6"/>
<path d="M93.9844 98.2031C93.6846 98.2031 93.3844 98.0887 93.1559 97.8597L82.023 86.7269C81.5653 86.2694 81.5653 85.5274 82.023 85.0699C82.4803 84.6121 83.2228 84.6121 83.6801 85.0699L94.8129 96.2027C95.2706 96.6602 95.2706 97.4022 94.8129 97.8597C94.5844 98.0887 94.2841 98.2031 93.9844 98.2031Z" fill="#591ED6"/>
<path d="M99.8438 35.5078C95.3205 35.5078 91.6406 31.8279 91.6406 27.3047C91.6406 22.7815 95.3205 19.1016 99.8438 19.1016C104.367 19.1016 108.047 22.7815 108.047 27.3047C108.047 31.8279 104.367 35.5078 99.8438 35.5078ZM99.8438 21.4453C96.6129 21.4453 93.9844 24.0738 93.9844 27.3047C93.9844 30.5355 96.6129 33.1641 99.8438 33.1641C103.075 33.1641 105.703 30.5355 105.703 27.3047C105.703 24.0738 103.075 21.4453 99.8438 21.4453Z" fill="#591ED6"/>
<path d="M24.8438 108.164C19.0282 108.164 14.2969 103.433 14.2969 97.6172C14.2969 91.8019 19.0282 87.0703 24.8438 87.0703C30.6593 87.0703 35.3906 91.8019 35.3906 97.6172C35.3906 103.433 30.6593 108.164 24.8438 108.164ZM24.8438 89.4141C20.3205 89.4141 16.6406 93.094 16.6406 97.6172C16.6406 102.14 20.3205 105.82 24.8438 105.82C29.367 105.82 33.0469 102.14 33.0469 97.6172C33.0469 93.094 29.367 89.4141 24.8438 89.4141Z" fill="#591ED6"/>
</svg>
