<svg width="20" height="20" viewBox="0 0 20 20" fill="none" xmlns="http://www.w3.org/2000/svg">
<path d="M2.84455 8.95373C2.34843 8.7608 2.10036 8.66433 2.02794 8.52533C1.96516 8.40483 1.96508 8.26129 2.02772 8.14071C2.09997 8.00163 2.34792 7.90486 2.84382 7.71134L16.9169 2.21939C17.3646 2.0447 17.5884 1.95736 17.7314 2.00514C17.8556 2.04663 17.9531 2.1441 17.9946 2.26831C18.0424 2.41133 17.955 2.63516 17.7804 3.08281L12.2884 17.1559C12.0949 17.6518 11.9981 17.8998 11.859 17.972C11.7385 18.0347 11.5949 18.0346 11.4744 17.9718C11.3354 17.8994 11.239 17.6513 11.046 17.1552L8.85592 11.5235C8.81676 11.4228 8.79718 11.3725 8.76693 11.3301C8.74012 11.2925 8.70726 11.2596 8.66968 11.2328C8.62728 11.2026 8.57692 11.183 8.47622 11.1438L2.84455 8.95373Z" stroke="#747474" stroke-width="2" stroke-linecap="round" stroke-linejoin="round"/>
</svg>
