<svg width="35" height="34" viewBox="0 0 35 34" fill="none" xmlns="http://www.w3.org/2000/svg">
<path d="M18.1459 13.5416H18.4536C20.612 13.5416 21.6912 13.5416 22.1009 13.9293C22.4551 14.2644 22.612 14.758 22.5164 15.2361C22.4058 15.7892 21.5247 16.4124 19.7625 17.6588L16.8834 19.6952C15.1212 20.9417 14.2401 21.5649 14.1295 22.118C14.0339 22.5961 14.1908 23.0897 14.5449 23.4248C14.9546 23.8125 16.0339 23.8125 18.1923 23.8125H18.8542M15.6667 13.5416C15.6667 14.7152 14.7153 15.6666 13.5417 15.6666C12.3681 15.6666 11.4167 14.7152 11.4167 13.5416C11.4167 12.368 12.3681 11.4166 13.5417 11.4166C14.7153 11.4166 15.6667 12.368 15.6667 13.5416ZM25.5834 23.4583C25.5834 24.6319 24.632 25.5833 23.4584 25.5833C22.2847 25.5833 21.3334 24.6319 21.3334 23.4583C21.3334 22.2847 22.2847 21.3333 23.4584 21.3333C24.632 21.3333 25.5834 22.2847 25.5834 23.4583Z" stroke="#1B8EE2" stroke-width="2" stroke-linecap="round" stroke-linejoin="round"/>
</svg>
