<svg width="32" height="32" viewBox="0 0 32 32" fill="none" xmlns="http://www.w3.org/2000/svg">
<g filter="url(#filter0_d_28_2762)">
<path d="M6 16C6 10.4772 10.4772 6 16 6C21.5228 6 26 10.4772 26 16C26 21.5228 21.5228 26 16 26C10.4772 26 6 21.5228 6 16Z" fill="#1EB96E"/>
<path fill-rule="evenodd" clip-rule="evenodd" d="M23 24.4996V14.9996C23 14.8156 22.899 14.6466 22.7365 14.5596L16.2365 11.0596C16.089 10.9801 15.9105 10.9801 15.763 11.0596L9.263 14.5596C9.101 14.6466 9 14.8156 9 14.9996V24.4996C9 24.7756 9.2235 24.9996 9.5 24.9996H11.5V16.9996C11.5 16.7236 11.7235 16.4996 12 16.4996H20C20.2765 16.4996 20.5 16.7236 20.5 16.9996V24.9996H22.5C22.7765 24.9996 23 24.7756 23 24.4996ZM12.5 18.9996H19.5V17.4996H12.5V18.9996ZM19.5 19.9996H12.5V21.4996H19.5V19.9996ZM12.5001 22.4999H19.5001V23.9999H12.5001V22.4999Z" fill="white"/>
<path d="M16 25C11.0294 25 7 20.9706 7 16H5C5 22.0751 9.92487 27 16 27V25ZM25 16C25 20.9706 20.9706 25 16 25V27C22.0751 27 27 22.0751 27 16H25ZM16 7C20.9706 7 25 11.0294 25 16H27C27 9.92487 22.0751 5 16 5V7ZM16 5C9.92487 5 5 9.92487 5 16H7C7 11.0294 11.0294 7 16 7V5Z" fill="#1EB96E"/>
</g>
<defs>
<filter id="filter0_d_28_2762" x="0" y="0" width="32" height="32" filterUnits="userSpaceOnUse" color-interpolation-filters="sRGB">
<feFlood flood-opacity="0" result="BackgroundImageFix"/>
<feColorMatrix in="SourceAlpha" type="matrix" values="0 0 0 0 0 0 0 0 0 0 0 0 0 0 0 0 0 0 127 0" result="hardAlpha"/>
<feOffset/>
<feGaussianBlur stdDeviation="3"/>
<feComposite in2="hardAlpha" operator="out"/>
<feColorMatrix type="matrix" values="0 0 0 0 0 0 0 0 0 0 0 0 0 0 0 0 0 0 0.4 0"/>
<feBlend mode="normal" in2="BackgroundImageFix" result="effect1_dropShadow_28_2762"/>
<feBlend mode="normal" in="SourceGraphic" in2="effect1_dropShadow_28_2762" result="shape"/>
</filter>
</defs>
</svg>
